<mxfile host="app.diagrams.net" modified="2023-12-04T08:55:07.272Z" agent="Mozilla/5.0 (Windows NT 10.0; Win64; x64) AppleWebKit/537.36 (KHTML, like Gecko) Chrome/119.0.0.0 Safari/537.36 Edg/119.0.0.0" etag="MOJV6cEAf4iyO_yt4TkD" version="22.1.5" type="github" pages="5">
  <diagram name="0. SMT Flow" id="4LoAcsa9wCyBJGU6yPAQ">
    <mxGraphModel dx="2379" dy="1145" grid="1" gridSize="10" guides="1" tooltips="1" connect="1" arrows="1" fold="1" page="0" pageScale="1" pageWidth="1169" pageHeight="827" math="0" shadow="0">
      <root>
        <mxCell id="lsrAI2a4YngaBVKj8FtU-0" />
        <mxCell id="lsrAI2a4YngaBVKj8FtU-1" parent="lsrAI2a4YngaBVKj8FtU-0" />
        <mxCell id="gDUpVS5IpSoHxMBYjF2x-1" style="edgeStyle=orthogonalEdgeStyle;rounded=0;orthogonalLoop=1;jettySize=auto;html=1;exitX=1;exitY=0.5;exitDx=0;exitDy=0;entryX=0;entryY=0.5;entryDx=0;entryDy=0;fontSize=13;" parent="lsrAI2a4YngaBVKj8FtU-1" source="lsrAI2a4YngaBVKj8FtU-5" target="lsrAI2a4YngaBVKj8FtU-8" edge="1">
          <mxGeometry relative="1" as="geometry" />
        </mxCell>
        <mxCell id="lsrAI2a4YngaBVKj8FtU-5" value="1&lt;br style=&quot;font-size: 13px;&quot;&gt;MES Create WO" style="rounded=1;whiteSpace=wrap;html=1;fontSize=13;verticalAlign=middle;" parent="lsrAI2a4YngaBVKj8FtU-1" vertex="1">
          <mxGeometry x="40" y="200" width="120" height="120" as="geometry" />
        </mxCell>
        <mxCell id="gDUpVS5IpSoHxMBYjF2x-2" style="edgeStyle=orthogonalEdgeStyle;rounded=0;orthogonalLoop=1;jettySize=auto;html=1;exitX=1;exitY=0.5;exitDx=0;exitDy=0;entryX=0;entryY=0.5;entryDx=0;entryDy=0;fontSize=13;" parent="lsrAI2a4YngaBVKj8FtU-1" source="lsrAI2a4YngaBVKj8FtU-8" target="lsrAI2a4YngaBVKj8FtU-10" edge="1">
          <mxGeometry relative="1" as="geometry" />
        </mxCell>
        <mxCell id="lsrAI2a4YngaBVKj8FtU-8" value="&lt;br style=&quot;font-size: 13px;&quot;&gt;2&lt;br style=&quot;font-size: 13px;&quot;&gt;MES Release &amp;amp; &lt;br style=&quot;font-size: 13px;&quot;&gt;Start WO&lt;br style=&quot;font-size: 13px;&quot;&gt;" style="rounded=1;whiteSpace=wrap;html=1;fontSize=13;" parent="lsrAI2a4YngaBVKj8FtU-1" vertex="1">
          <mxGeometry x="240" y="200" width="120" height="120" as="geometry" />
        </mxCell>
        <mxCell id="lsrAI2a4YngaBVKj8FtU-9" value="Start" style="ellipse;whiteSpace=wrap;html=1;aspect=fixed;fontSize=13;" parent="lsrAI2a4YngaBVKj8FtU-1" vertex="1">
          <mxGeometry x="60" y="20" width="80" height="80" as="geometry" />
        </mxCell>
        <mxCell id="JL5M2NKlcuQdTF7bNuk7-0" value="End" style="ellipse;whiteSpace=wrap;html=1;aspect=fixed;fontSize=13;" parent="lsrAI2a4YngaBVKj8FtU-1" vertex="1">
          <mxGeometry x="2900" y="1020" width="80" height="80" as="geometry" />
        </mxCell>
        <mxCell id="gDUpVS5IpSoHxMBYjF2x-0" style="edgeStyle=orthogonalEdgeStyle;rounded=0;orthogonalLoop=1;jettySize=auto;html=1;exitX=0.5;exitY=1;exitDx=0;exitDy=0;entryX=0.5;entryY=0;entryDx=0;entryDy=0;fontSize=13;" parent="lsrAI2a4YngaBVKj8FtU-1" source="lsrAI2a4YngaBVKj8FtU-9" target="lsrAI2a4YngaBVKj8FtU-5" edge="1">
          <mxGeometry relative="1" as="geometry" />
        </mxCell>
        <mxCell id="SeX5UwsHkIRVZ4z2yRDU-0" value="" style="group" parent="lsrAI2a4YngaBVKj8FtU-1" vertex="1" connectable="0">
          <mxGeometry x="-20" y="140" width="3290" height="820" as="geometry" />
        </mxCell>
        <mxCell id="hTAVZJHK6Nea7UwYxCpy-0" value="&lt;font style=&quot;font-size: 13px;&quot;&gt;SMT Flow&lt;/font&gt;" style="swimlane;childLayout=stackLayout;resizeParent=1;resizeParentMax=0;horizontal=1;startSize=20;horizontalStack=0;html=1;" parent="SeX5UwsHkIRVZ4z2yRDU-0" vertex="1">
          <mxGeometry width="3290" height="620" as="geometry" />
        </mxCell>
        <mxCell id="hTAVZJHK6Nea7UwYxCpy-1" value="&lt;font style=&quot;font-size: 13px;&quot;&gt;MES System&lt;/font&gt;" style="swimlane;startSize=20;horizontal=0;html=1;" parent="hTAVZJHK6Nea7UwYxCpy-0" vertex="1">
          <mxGeometry y="20" width="3290" height="200" as="geometry" />
        </mxCell>
        <mxCell id="hTAVZJHK6Nea7UwYxCpy-9" style="edgeStyle=orthogonalEdgeStyle;rounded=0;orthogonalLoop=1;jettySize=auto;html=1;exitX=1;exitY=0.5;exitDx=0;exitDy=0;entryX=0;entryY=0.5;entryDx=0;entryDy=0;" parent="hTAVZJHK6Nea7UwYxCpy-1" source="lsrAI2a4YngaBVKj8FtU-14" target="lsrAI2a4YngaBVKj8FtU-15" edge="1">
          <mxGeometry relative="1" as="geometry" />
        </mxCell>
        <mxCell id="lsrAI2a4YngaBVKj8FtU-14" value="8&lt;br&gt;IOT&lt;br&gt;Panel Track in" style="rounded=1;whiteSpace=wrap;html=1;fontSize=13;" parent="hTAVZJHK6Nea7UwYxCpy-1" vertex="1">
          <mxGeometry x="1420.0035877862595" y="40" width="120" height="120" as="geometry" />
        </mxCell>
        <mxCell id="hTAVZJHK6Nea7UwYxCpy-10" style="edgeStyle=orthogonalEdgeStyle;rounded=0;orthogonalLoop=1;jettySize=auto;html=1;exitX=1;exitY=0.5;exitDx=0;exitDy=0;entryX=0;entryY=0.5;entryDx=0;entryDy=0;" parent="hTAVZJHK6Nea7UwYxCpy-1" source="lsrAI2a4YngaBVKj8FtU-15" target="lsrAI2a4YngaBVKj8FtU-16" edge="1">
          <mxGeometry relative="1" as="geometry" />
        </mxCell>
        <mxCell id="lsrAI2a4YngaBVKj8FtU-15" value="9&lt;br&gt;Laser&lt;br&gt;Expand Panel" style="rounded=1;whiteSpace=wrap;html=1;fontSize=13;" parent="hTAVZJHK6Nea7UwYxCpy-1" vertex="1">
          <mxGeometry x="1620.0045038167939" y="40" width="120" height="120" as="geometry" />
        </mxCell>
        <mxCell id="hTAVZJHK6Nea7UwYxCpy-11" style="edgeStyle=orthogonalEdgeStyle;rounded=0;orthogonalLoop=1;jettySize=auto;html=1;exitX=1;exitY=0.5;exitDx=0;exitDy=0;entryX=0;entryY=0.5;entryDx=0;entryDy=0;" parent="hTAVZJHK6Nea7UwYxCpy-1" source="lsrAI2a4YngaBVKj8FtU-16" target="lsrAI2a4YngaBVKj8FtU-17" edge="1">
          <mxGeometry relative="1" as="geometry" />
        </mxCell>
        <mxCell id="lsrAI2a4YngaBVKj8FtU-16" value="10&lt;br&gt;Printer" style="rounded=1;whiteSpace=wrap;html=1;fontSize=13;" parent="hTAVZJHK6Nea7UwYxCpy-1" vertex="1">
          <mxGeometry x="1819.995419847328" y="40" width="120" height="120" as="geometry" />
        </mxCell>
        <mxCell id="hTAVZJHK6Nea7UwYxCpy-12" style="edgeStyle=orthogonalEdgeStyle;rounded=0;orthogonalLoop=1;jettySize=auto;html=1;exitX=1;exitY=0.5;exitDx=0;exitDy=0;entryX=0;entryY=0.5;entryDx=0;entryDy=0;" parent="hTAVZJHK6Nea7UwYxCpy-1" source="lsrAI2a4YngaBVKj8FtU-17" target="lsrAI2a4YngaBVKj8FtU-18" edge="1">
          <mxGeometry relative="1" as="geometry" />
        </mxCell>
        <mxCell id="lsrAI2a4YngaBVKj8FtU-17" value="11&lt;br&gt;SPI" style="rounded=1;whiteSpace=wrap;html=1;fontSize=13;" parent="hTAVZJHK6Nea7UwYxCpy-1" vertex="1">
          <mxGeometry x="2019.9963358778625" y="40" width="120" height="120" as="geometry" />
        </mxCell>
        <mxCell id="hTAVZJHK6Nea7UwYxCpy-13" style="edgeStyle=orthogonalEdgeStyle;rounded=0;orthogonalLoop=1;jettySize=auto;html=1;exitX=1;exitY=0.5;exitDx=0;exitDy=0;" parent="hTAVZJHK6Nea7UwYxCpy-1" source="lsrAI2a4YngaBVKj8FtU-18" target="lsrAI2a4YngaBVKj8FtU-19" edge="1">
          <mxGeometry relative="1" as="geometry" />
        </mxCell>
        <mxCell id="lsrAI2a4YngaBVKj8FtU-18" value="12&lt;br&gt;P&amp;amp;P" style="rounded=1;whiteSpace=wrap;html=1;fontSize=13;" parent="hTAVZJHK6Nea7UwYxCpy-1" vertex="1">
          <mxGeometry x="2219.997251908397" y="40" width="120" height="120" as="geometry" />
        </mxCell>
        <mxCell id="hTAVZJHK6Nea7UwYxCpy-14" style="edgeStyle=orthogonalEdgeStyle;rounded=0;orthogonalLoop=1;jettySize=auto;html=1;exitX=1;exitY=0.5;exitDx=0;exitDy=0;entryX=0;entryY=0.5;entryDx=0;entryDy=0;" parent="hTAVZJHK6Nea7UwYxCpy-1" source="lsrAI2a4YngaBVKj8FtU-19" target="lsrAI2a4YngaBVKj8FtU-26" edge="1">
          <mxGeometry relative="1" as="geometry" />
        </mxCell>
        <mxCell id="lsrAI2a4YngaBVKj8FtU-19" value="13&lt;br&gt;Reflow" style="rounded=1;whiteSpace=wrap;html=1;fontSize=13;" parent="hTAVZJHK6Nea7UwYxCpy-1" vertex="1">
          <mxGeometry x="2419.998167938931" y="40" width="120" height="120" as="geometry" />
        </mxCell>
        <mxCell id="lsrAI2a4YngaBVKj8FtU-26" value="14&lt;br&gt;AOI" style="rounded=1;whiteSpace=wrap;html=1;fontSize=13;" parent="hTAVZJHK6Nea7UwYxCpy-1" vertex="1">
          <mxGeometry x="2619.9990839694656" y="40" width="120" height="120" as="geometry" />
        </mxCell>
        <mxCell id="hTAVZJHK6Nea7UwYxCpy-20" style="edgeStyle=orthogonalEdgeStyle;rounded=0;orthogonalLoop=1;jettySize=auto;html=1;exitX=1;exitY=0.5;exitDx=0;exitDy=0;entryX=0;entryY=0.5;entryDx=0;entryDy=0;" parent="hTAVZJHK6Nea7UwYxCpy-1" source="hTAVZJHK6Nea7UwYxCpy-16" target="lsrAI2a4YngaBVKj8FtU-14" edge="1">
          <mxGeometry relative="1" as="geometry" />
        </mxCell>
        <mxCell id="hTAVZJHK6Nea7UwYxCpy-16" value="7&lt;br&gt;Auto Attach Stencil &amp;amp; Support Fixture" style="rounded=1;whiteSpace=wrap;html=1;fontSize=13;" parent="hTAVZJHK6Nea7UwYxCpy-1" vertex="1">
          <mxGeometry x="1220.002671755725" y="40" width="120" height="120" as="geometry" />
        </mxCell>
        <mxCell id="SeX5UwsHkIRVZ4z2yRDU-7" style="edgeStyle=orthogonalEdgeStyle;rounded=0;orthogonalLoop=1;jettySize=auto;html=1;exitX=1;exitY=0.5;exitDx=0;exitDy=0;entryX=0;entryY=0.5;entryDx=0;entryDy=0;" parent="hTAVZJHK6Nea7UwYxCpy-1" source="SeX5UwsHkIRVZ4z2yRDU-2" target="hTAVZJHK6Nea7UwYxCpy-16" edge="1">
          <mxGeometry relative="1" as="geometry" />
        </mxCell>
        <mxCell id="SeX5UwsHkIRVZ4z2yRDU-8" value="Yes&lt;br style=&quot;font-size: 13px;&quot;&gt;(API)" style="edgeLabel;html=1;align=center;verticalAlign=middle;resizable=0;points=[];fontSize=13;" parent="SeX5UwsHkIRVZ4z2yRDU-7" vertex="1" connectable="0">
          <mxGeometry x="-0.0976" y="-2" relative="1" as="geometry">
            <mxPoint as="offset" />
          </mxGeometry>
        </mxCell>
        <mxCell id="SeX5UwsHkIRVZ4z2yRDU-2" value="6&lt;br&gt;GPS SMT&lt;br&gt;TC Verify" style="rhombus;whiteSpace=wrap;html=1;" parent="hTAVZJHK6Nea7UwYxCpy-1" vertex="1">
          <mxGeometry x="1018" y="40" width="120" height="120" as="geometry" />
        </mxCell>
        <mxCell id="hTAVZJHK6Nea7UwYxCpy-2" value="&lt;font style=&quot;font-size: 13px;&quot;&gt;GL&lt;/font&gt;" style="swimlane;startSize=20;horizontal=0;html=1;" parent="hTAVZJHK6Nea7UwYxCpy-0" vertex="1">
          <mxGeometry y="220" width="3290" height="200" as="geometry" />
        </mxCell>
        <mxCell id="lsrAI2a4YngaBVKj8FtU-10" value="3&lt;br style=&quot;font-size: 13px;&quot;&gt;GL Split WO &lt;br&gt;to Lots" style="rounded=1;whiteSpace=wrap;html=1;fontSize=13;" parent="hTAVZJHK6Nea7UwYxCpy-2" vertex="1">
          <mxGeometry x="459.9961068702291" y="40" width="120" height="120" as="geometry" />
        </mxCell>
        <mxCell id="hTAVZJHK6Nea7UwYxCpy-3" value="&lt;font style=&quot;font-size: 13px;&quot;&gt;OP&lt;/font&gt;" style="swimlane;startSize=20;horizontal=0;html=1;" parent="hTAVZJHK6Nea7UwYxCpy-0" vertex="1">
          <mxGeometry y="420" width="3290" height="200" as="geometry" />
        </mxCell>
        <mxCell id="hTAVZJHK6Nea7UwYxCpy-15" style="edgeStyle=orthogonalEdgeStyle;rounded=0;orthogonalLoop=1;jettySize=auto;html=1;exitX=1;exitY=0.5;exitDx=0;exitDy=0;entryX=0;entryY=0.5;entryDx=0;entryDy=0;" parent="hTAVZJHK6Nea7UwYxCpy-3" source="lsrAI2a4YngaBVKj8FtU-11" target="lsrAI2a4YngaBVKj8FtU-13" edge="1">
          <mxGeometry relative="1" as="geometry" />
        </mxCell>
        <mxCell id="lsrAI2a4YngaBVKj8FtU-11" value="4&lt;br&gt;Dispatch Lot to Line&lt;br style=&quot;font-size: 13px;&quot;&gt;(According to PM Scheduling)" style="rounded=1;whiteSpace=wrap;html=1;fontSize=13;" parent="hTAVZJHK6Nea7UwYxCpy-3" vertex="1">
          <mxGeometry x="620.0008396946564" y="40" width="120" height="120" as="geometry" />
        </mxCell>
        <mxCell id="lsrAI2a4YngaBVKj8FtU-13" value="5&lt;br&gt;Assign Solder&amp;nbsp;&lt;br&gt;Paste" style="rounded=1;whiteSpace=wrap;html=1;fontSize=13;" parent="hTAVZJHK6Nea7UwYxCpy-3" vertex="1">
          <mxGeometry x="820.0017557251908" y="40" width="120" height="120" as="geometry" />
        </mxCell>
        <mxCell id="hTAVZJHK6Nea7UwYxCpy-4" style="edgeStyle=orthogonalEdgeStyle;rounded=0;orthogonalLoop=1;jettySize=auto;html=1;exitX=0.5;exitY=1;exitDx=0;exitDy=0;entryX=0;entryY=0.5;entryDx=0;entryDy=0;" parent="hTAVZJHK6Nea7UwYxCpy-0" source="lsrAI2a4YngaBVKj8FtU-10" target="lsrAI2a4YngaBVKj8FtU-11" edge="1">
          <mxGeometry relative="1" as="geometry" />
        </mxCell>
        <mxCell id="SeX5UwsHkIRVZ4z2yRDU-3" style="edgeStyle=orthogonalEdgeStyle;rounded=0;orthogonalLoop=1;jettySize=auto;html=1;exitX=1;exitY=0.5;exitDx=0;exitDy=0;entryX=0;entryY=0.5;entryDx=0;entryDy=0;" parent="hTAVZJHK6Nea7UwYxCpy-0" source="lsrAI2a4YngaBVKj8FtU-13" target="SeX5UwsHkIRVZ4z2yRDU-2" edge="1">
          <mxGeometry relative="1" as="geometry" />
        </mxCell>
        <mxCell id="hTAVZJHK6Nea7UwYxCpy-5" value="&lt;font style=&quot;font-size: 13px;&quot;&gt;GPS&lt;br&gt;&lt;/font&gt;" style="swimlane;startSize=20;horizontal=0;html=1;" parent="SeX5UwsHkIRVZ4z2yRDU-0" vertex="1">
          <mxGeometry y="620" width="3290" height="200" as="geometry" />
        </mxCell>
        <mxCell id="SeX5UwsHkIRVZ4z2yRDU-5" style="edgeStyle=orthogonalEdgeStyle;rounded=0;orthogonalLoop=1;jettySize=auto;html=1;exitX=0.5;exitY=1;exitDx=0;exitDy=0;entryX=0;entryY=0.5;entryDx=0;entryDy=0;" parent="lsrAI2a4YngaBVKj8FtU-1" source="SeX5UwsHkIRVZ4z2yRDU-2" target="JL5M2NKlcuQdTF7bNuk7-0" edge="1">
          <mxGeometry relative="1" as="geometry" />
        </mxCell>
        <mxCell id="SeX5UwsHkIRVZ4z2yRDU-6" value="No" style="edgeLabel;html=1;align=center;verticalAlign=middle;resizable=0;points=[];fontSize=13;" parent="SeX5UwsHkIRVZ4z2yRDU-5" vertex="1" connectable="0">
          <mxGeometry x="-0.9264" y="-1" relative="1" as="geometry">
            <mxPoint as="offset" />
          </mxGeometry>
        </mxCell>
        <mxCell id="SeX5UwsHkIRVZ4z2yRDU-10" style="edgeStyle=orthogonalEdgeStyle;rounded=0;orthogonalLoop=1;jettySize=auto;html=1;exitX=1;exitY=0.5;exitDx=0;exitDy=0;entryX=0.5;entryY=0;entryDx=0;entryDy=0;" parent="lsrAI2a4YngaBVKj8FtU-1" source="lsrAI2a4YngaBVKj8FtU-26" target="JL5M2NKlcuQdTF7bNuk7-0" edge="1">
          <mxGeometry relative="1" as="geometry" />
        </mxCell>
      </root>
    </mxGraphModel>
  </diagram>
  <diagram name="1. MES Create WO" id="kMfND19_Ezq3t_1BL4Cr">
    <mxGraphModel dx="2377" dy="1145" grid="1" gridSize="10" guides="1" tooltips="1" connect="1" arrows="1" fold="1" page="0" pageScale="1" pageWidth="1169" pageHeight="827" math="0" shadow="0">
      <root>
        <mxCell id="v-P0XJ886XZ0XmWnyiew-0" />
        <mxCell id="v-P0XJ886XZ0XmWnyiew-1" parent="v-P0XJ886XZ0XmWnyiew-0" />
        <mxCell id="v-P0XJ886XZ0XmWnyiew-2" style="edgeStyle=orthogonalEdgeStyle;rounded=0;orthogonalLoop=1;jettySize=auto;html=1;exitX=1;exitY=0.5;exitDx=0;exitDy=0;entryX=0;entryY=0.5;entryDx=0;entryDy=0;fontSize=13;" edge="1" parent="v-P0XJ886XZ0XmWnyiew-1" source="v-P0XJ886XZ0XmWnyiew-4" target="v-P0XJ886XZ0XmWnyiew-6">
          <mxGeometry relative="1" as="geometry">
            <mxPoint x="200" y="290" as="targetPoint" />
          </mxGeometry>
        </mxCell>
        <mxCell id="v-P0XJ886XZ0XmWnyiew-3" style="edgeStyle=orthogonalEdgeStyle;rounded=0;orthogonalLoop=1;jettySize=auto;html=1;exitX=1;exitY=0.5;exitDx=0;exitDy=0;entryX=0;entryY=0.5;entryDx=0;entryDy=0;fontSize=13;" edge="1" parent="v-P0XJ886XZ0XmWnyiew-1" source="v-P0XJ886XZ0XmWnyiew-4" target="v-P0XJ886XZ0XmWnyiew-8">
          <mxGeometry relative="1" as="geometry" />
        </mxCell>
        <mxCell id="v-P0XJ886XZ0XmWnyiew-4" value="1.1&lt;br style=&quot;font-size: 13px;&quot;&gt;E1 Issue WO" style="rounded=1;whiteSpace=wrap;html=1;fontSize=13;" vertex="1" parent="v-P0XJ886XZ0XmWnyiew-1">
          <mxGeometry x="44.5" y="240" width="120" height="120" as="geometry" />
        </mxCell>
        <mxCell id="v-P0XJ886XZ0XmWnyiew-5" style="edgeStyle=orthogonalEdgeStyle;rounded=0;orthogonalLoop=1;jettySize=auto;html=1;exitX=1;exitY=0.5;exitDx=0;exitDy=0;entryX=0;entryY=0.5;entryDx=0;entryDy=0;fontSize=13;" edge="1" parent="v-P0XJ886XZ0XmWnyiew-1" source="v-P0XJ886XZ0XmWnyiew-6" target="v-P0XJ886XZ0XmWnyiew-9">
          <mxGeometry relative="1" as="geometry" />
        </mxCell>
        <mxCell id="v-P0XJ886XZ0XmWnyiew-6" value="1.2&lt;br style=&quot;font-size: 13px;&quot;&gt;Send to MES" style="rounded=1;whiteSpace=wrap;html=1;fontSize=13;" vertex="1" parent="v-P0XJ886XZ0XmWnyiew-1">
          <mxGeometry x="240" y="240" width="120" height="120" as="geometry" />
        </mxCell>
        <mxCell id="v-P0XJ886XZ0XmWnyiew-7" style="edgeStyle=orthogonalEdgeStyle;rounded=0;orthogonalLoop=1;jettySize=auto;html=1;exitX=1;exitY=0.5;exitDx=0;exitDy=0;entryX=0;entryY=0.5;entryDx=0;entryDy=0;fontSize=13;" edge="1" parent="v-P0XJ886XZ0XmWnyiew-1" source="v-P0XJ886XZ0XmWnyiew-8" target="v-P0XJ886XZ0XmWnyiew-11">
          <mxGeometry relative="1" as="geometry" />
        </mxCell>
        <mxCell id="v-P0XJ886XZ0XmWnyiew-8" value="1.3&lt;br style=&quot;font-size: 13px;&quot;&gt;Send to EWO" style="rounded=1;whiteSpace=wrap;html=1;fontSize=13;" vertex="1" parent="v-P0XJ886XZ0XmWnyiew-1">
          <mxGeometry x="240" y="440" width="120" height="120" as="geometry" />
        </mxCell>
        <mxCell id="v-P0XJ886XZ0XmWnyiew-9" value="1.4&lt;br style=&quot;font-size: 13px;&quot;&gt;MES Create WO" style="rounded=1;whiteSpace=wrap;html=1;fontSize=13;" vertex="1" parent="v-P0XJ886XZ0XmWnyiew-1">
          <mxGeometry x="440" y="240" width="120" height="120" as="geometry" />
        </mxCell>
        <mxCell id="v-P0XJ886XZ0XmWnyiew-10" style="edgeStyle=orthogonalEdgeStyle;rounded=0;orthogonalLoop=1;jettySize=auto;html=1;exitX=1;exitY=0.5;exitDx=0;exitDy=0;entryX=0;entryY=0.5;entryDx=0;entryDy=0;fontSize=13;" edge="1" parent="v-P0XJ886XZ0XmWnyiew-1" source="v-P0XJ886XZ0XmWnyiew-11" target="v-P0XJ886XZ0XmWnyiew-26">
          <mxGeometry relative="1" as="geometry" />
        </mxCell>
        <mxCell id="v-P0XJ886XZ0XmWnyiew-11" value="1.5&lt;br style=&quot;font-size: 13px;&quot;&gt;EWO Create WO" style="rounded=1;whiteSpace=wrap;html=1;fontSize=13;" vertex="1" parent="v-P0XJ886XZ0XmWnyiew-1">
          <mxGeometry x="440" y="440" width="120" height="120" as="geometry" />
        </mxCell>
        <mxCell id="v-P0XJ886XZ0XmWnyiew-14" value="Start" style="ellipse;whiteSpace=wrap;html=1;aspect=fixed;fontSize=13;" vertex="1" parent="v-P0XJ886XZ0XmWnyiew-1">
          <mxGeometry x="64.5" y="80" width="80" height="80" as="geometry" />
        </mxCell>
        <mxCell id="v-P0XJ886XZ0XmWnyiew-15" value="GPS TC Verify" style="rounded=1;whiteSpace=wrap;html=1;" vertex="1" parent="v-P0XJ886XZ0XmWnyiew-1">
          <mxGeometry x="1980" y="240" width="120" height="100" as="geometry" />
        </mxCell>
        <mxCell id="v-P0XJ886XZ0XmWnyiew-16" value="Panel Track in" style="rounded=1;whiteSpace=wrap;html=1;" vertex="1" parent="v-P0XJ886XZ0XmWnyiew-1">
          <mxGeometry x="2140" y="240" width="120" height="100" as="geometry" />
        </mxCell>
        <mxCell id="v-P0XJ886XZ0XmWnyiew-17" value="Panel Track in" style="rounded=1;whiteSpace=wrap;html=1;" vertex="1" parent="v-P0XJ886XZ0XmWnyiew-1">
          <mxGeometry x="2300" y="240" width="120" height="100" as="geometry" />
        </mxCell>
        <mxCell id="v-P0XJ886XZ0XmWnyiew-18" value="Laser" style="rounded=1;whiteSpace=wrap;html=1;" vertex="1" parent="v-P0XJ886XZ0XmWnyiew-1">
          <mxGeometry x="2460" y="240" width="120" height="100" as="geometry" />
        </mxCell>
        <mxCell id="v-P0XJ886XZ0XmWnyiew-19" value="Printer" style="rounded=1;whiteSpace=wrap;html=1;" vertex="1" parent="v-P0XJ886XZ0XmWnyiew-1">
          <mxGeometry x="2620" y="240" width="120" height="100" as="geometry" />
        </mxCell>
        <mxCell id="v-P0XJ886XZ0XmWnyiew-20" value="SPI" style="rounded=1;whiteSpace=wrap;html=1;" vertex="1" parent="v-P0XJ886XZ0XmWnyiew-1">
          <mxGeometry x="2780" y="240" width="120" height="100" as="geometry" />
        </mxCell>
        <mxCell id="v-P0XJ886XZ0XmWnyiew-21" value="P&amp;amp;P" style="rounded=1;whiteSpace=wrap;html=1;" vertex="1" parent="v-P0XJ886XZ0XmWnyiew-1">
          <mxGeometry x="2940" y="240" width="120" height="100" as="geometry" />
        </mxCell>
        <mxCell id="v-P0XJ886XZ0XmWnyiew-22" value="Reflow" style="rounded=1;whiteSpace=wrap;html=1;" vertex="1" parent="v-P0XJ886XZ0XmWnyiew-1">
          <mxGeometry x="3100" y="240" width="120" height="100" as="geometry" />
        </mxCell>
        <mxCell id="v-P0XJ886XZ0XmWnyiew-23" value="1 MES Create WO" style="swimlane;childLayout=stackLayout;resizeParent=1;resizeParentMax=0;horizontal=1;startSize=20;horizontalStack=0;html=1;fontSize=13;" vertex="1" parent="v-P0XJ886XZ0XmWnyiew-1">
          <mxGeometry x="-20" y="190" width="1060" height="410" as="geometry" />
        </mxCell>
        <mxCell id="v-P0XJ886XZ0XmWnyiew-24" value="MES" style="swimlane;startSize=20;horizontal=0;html=1;fontSize=13;" vertex="1" parent="v-P0XJ886XZ0XmWnyiew-23">
          <mxGeometry y="20" width="1060" height="190" as="geometry" />
        </mxCell>
        <mxCell id="WAbsYzC9_2C1rCF1A_NO-0" value="1.7&lt;br style=&quot;font-size: 13px;&quot;&gt;PO: Set &lt;br&gt;isWorkFlowApproval&lt;br&gt;to True" style="rounded=1;whiteSpace=wrap;html=1;fontSize=13;" vertex="1" parent="v-P0XJ886XZ0XmWnyiew-24">
          <mxGeometry x="860" y="30" width="120" height="120" as="geometry" />
        </mxCell>
        <mxCell id="v-P0XJ886XZ0XmWnyiew-25" value="EWO" style="swimlane;startSize=20;horizontal=0;html=1;fontSize=13;" vertex="1" parent="v-P0XJ886XZ0XmWnyiew-23">
          <mxGeometry y="210" width="1060" height="200" as="geometry" />
        </mxCell>
        <mxCell id="v-P0XJ886XZ0XmWnyiew-26" value="1.6&lt;br style=&quot;font-size: 13px;&quot;&gt;EWO Approve" style="rhombus;whiteSpace=wrap;html=1;fontSize=13;" vertex="1" parent="v-P0XJ886XZ0XmWnyiew-25">
          <mxGeometry x="660" y="40" width="120" height="120" as="geometry" />
        </mxCell>
        <mxCell id="v-P0XJ886XZ0XmWnyiew-36" style="edgeStyle=orthogonalEdgeStyle;rounded=0;orthogonalLoop=1;jettySize=auto;html=1;exitX=1;exitY=0.5;exitDx=0;exitDy=0;fontSize=13;entryX=0;entryY=0.5;entryDx=0;entryDy=0;" edge="1" parent="v-P0XJ886XZ0XmWnyiew-23" source="v-P0XJ886XZ0XmWnyiew-26" target="WAbsYzC9_2C1rCF1A_NO-0">
          <mxGeometry relative="1" as="geometry">
            <mxPoint x="670" y="100" as="targetPoint" />
          </mxGeometry>
        </mxCell>
        <mxCell id="v-P0XJ886XZ0XmWnyiew-37" value="Yes&lt;br style=&quot;font-size: 13px;&quot;&gt;(API)" style="edgeLabel;html=1;align=center;verticalAlign=middle;resizable=0;points=[];fontSize=13;" vertex="1" connectable="0" parent="v-P0XJ886XZ0XmWnyiew-36">
          <mxGeometry x="-0.3643" y="2" relative="1" as="geometry">
            <mxPoint as="offset" />
          </mxGeometry>
        </mxCell>
        <mxCell id="v-P0XJ886XZ0XmWnyiew-31" value="AOI" style="rounded=1;whiteSpace=wrap;html=1;" vertex="1" parent="v-P0XJ886XZ0XmWnyiew-1">
          <mxGeometry x="3260" y="240" width="120" height="100" as="geometry" />
        </mxCell>
        <mxCell id="v-P0XJ886XZ0XmWnyiew-33" style="edgeStyle=orthogonalEdgeStyle;rounded=0;orthogonalLoop=1;jettySize=auto;html=1;exitX=0.5;exitY=1;exitDx=0;exitDy=0;entryX=0.5;entryY=0;entryDx=0;entryDy=0;fontSize=13;" edge="1" parent="v-P0XJ886XZ0XmWnyiew-1" source="v-P0XJ886XZ0XmWnyiew-14" target="v-P0XJ886XZ0XmWnyiew-4">
          <mxGeometry relative="1" as="geometry" />
        </mxCell>
        <mxCell id="v-P0XJ886XZ0XmWnyiew-34" value="End" style="ellipse;whiteSpace=wrap;html=1;aspect=fixed;fontSize=13;" vertex="1" parent="v-P0XJ886XZ0XmWnyiew-1">
          <mxGeometry x="660" y="680" width="80" height="80" as="geometry" />
        </mxCell>
        <mxCell id="KfGFUeUZ6IWh8sjZut4C-0" style="edgeStyle=orthogonalEdgeStyle;rounded=0;orthogonalLoop=1;jettySize=auto;html=1;exitX=0.5;exitY=1;exitDx=0;exitDy=0;entryX=0.5;entryY=0;entryDx=0;entryDy=0;entryPerimeter=0;" edge="1" parent="v-P0XJ886XZ0XmWnyiew-1" source="v-P0XJ886XZ0XmWnyiew-26" target="v-P0XJ886XZ0XmWnyiew-34">
          <mxGeometry relative="1" as="geometry">
            <mxPoint x="700" y="780" as="targetPoint" />
          </mxGeometry>
        </mxCell>
        <mxCell id="MZobAuaOQ1oqcK6hqaSr-1" value="&lt;font style=&quot;font-size: 13px;&quot;&gt;No&lt;/font&gt;" style="edgeLabel;html=1;align=center;verticalAlign=middle;resizable=0;points=[];" vertex="1" connectable="0" parent="KfGFUeUZ6IWh8sjZut4C-0">
          <mxGeometry x="0.2333" y="-1" relative="1" as="geometry">
            <mxPoint as="offset" />
          </mxGeometry>
        </mxCell>
        <mxCell id="MZobAuaOQ1oqcK6hqaSr-0" value="&lt;font style=&quot;font-size: 13px;&quot;&gt;&lt;br&gt;2&lt;br&gt;MES Release &amp;amp; &lt;br&gt;Start WO&lt;br&gt;&lt;br&gt;&lt;/font&gt;" style="rounded=1;whiteSpace=wrap;html=1;" vertex="1" parent="v-P0XJ886XZ0XmWnyiew-1">
          <mxGeometry x="1120" y="240" width="120" height="120" as="geometry" />
        </mxCell>
        <mxCell id="WAbsYzC9_2C1rCF1A_NO-1" style="edgeStyle=orthogonalEdgeStyle;rounded=0;orthogonalLoop=1;jettySize=auto;html=1;exitX=1;exitY=0.5;exitDx=0;exitDy=0;entryX=0;entryY=0.5;entryDx=0;entryDy=0;" edge="1" parent="v-P0XJ886XZ0XmWnyiew-1" source="WAbsYzC9_2C1rCF1A_NO-0" target="MZobAuaOQ1oqcK6hqaSr-0">
          <mxGeometry relative="1" as="geometry" />
        </mxCell>
      </root>
    </mxGraphModel>
  </diagram>
  <diagram id="iaL6RcCxSwWeX1bMBB6b" name="6. GPS TC Verify">
    <mxGraphModel dx="3177" dy="1945" grid="1" gridSize="10" guides="1" tooltips="1" connect="1" arrows="1" fold="1" page="0" pageScale="1" pageWidth="1169" pageHeight="827" math="0" shadow="0">
      <root>
        <mxCell id="0" />
        <mxCell id="1" parent="0" />
        <mxCell id="QHmtUkzqIkDgGUw0xg6C-3" value="" style="group" vertex="1" connectable="0" parent="1">
          <mxGeometry x="-820" y="-500" width="1270" height="610" as="geometry" />
        </mxCell>
        <mxCell id="JE7L3iNSK9wxi28AZLIl-1" value="6. GPS TC Verify" style="swimlane;childLayout=stackLayout;resizeParent=1;resizeParentMax=0;horizontal=1;startSize=20;horizontalStack=0;html=1;fontSize=13;" vertex="1" parent="QHmtUkzqIkDgGUw0xg6C-3">
          <mxGeometry width="860" height="420" as="geometry" />
        </mxCell>
        <mxCell id="JE7L3iNSK9wxi28AZLIl-2" value="GL" style="swimlane;startSize=20;horizontal=0;html=1;fontSize=13;" vertex="1" parent="JE7L3iNSK9wxi28AZLIl-1">
          <mxGeometry y="20" width="860" height="200" as="geometry" />
        </mxCell>
        <mxCell id="iK3zuMoLE5hwUh2cM-yj-1" value="7&lt;br&gt;Auto Attach Stencil &amp;amp; Support Fixture" style="rounded=1;whiteSpace=wrap;html=1;fontSize=13;" vertex="1" parent="JE7L3iNSK9wxi28AZLIl-2">
          <mxGeometry x="940.002671755725" y="40" width="120" height="120" as="geometry" />
        </mxCell>
        <mxCell id="4oc1TcgjgqitA63c4j54-5" value="6.4&lt;br style=&quot;font-size: 13px;&quot;&gt;&lt;span style=&quot;font-size: 13px;&quot;&gt;Verify SMT Travel Card&lt;/span&gt;" style="rhombus;whiteSpace=wrap;html=1;" vertex="1" parent="JE7L3iNSK9wxi28AZLIl-2">
          <mxGeometry x="660" y="40" width="120" height="120" as="geometry" />
        </mxCell>
        <mxCell id="QHmtUkzqIkDgGUw0xg6C-4" value="6.2&lt;br&gt;PM Schedule&lt;br&gt;Attach Solder &lt;br&gt;Paste" style="rounded=1;whiteSpace=wrap;html=1;fontSize=13;" vertex="1" parent="JE7L3iNSK9wxi28AZLIl-2">
          <mxGeometry x="260" y="40" width="120" height="120" as="geometry" />
        </mxCell>
        <mxCell id="QHmtUkzqIkDgGUw0xg6C-1" value="6.1&lt;br style=&quot;font-size: 13px;&quot;&gt;PM Schedule&lt;br&gt;Assign Line" style="rounded=1;whiteSpace=wrap;html=1;fontSize=13;" vertex="1" parent="JE7L3iNSK9wxi28AZLIl-2">
          <mxGeometry x="60" y="40" width="120" height="120" as="geometry" />
        </mxCell>
        <mxCell id="iK3zuMoLE5hwUh2cM-yj-2" style="edgeStyle=orthogonalEdgeStyle;rounded=0;orthogonalLoop=1;jettySize=auto;html=1;exitX=1;exitY=0.5;exitDx=0;exitDy=0;" edge="1" parent="JE7L3iNSK9wxi28AZLIl-2" source="4oc1TcgjgqitA63c4j54-5" target="iK3zuMoLE5hwUh2cM-yj-1">
          <mxGeometry relative="1" as="geometry" />
        </mxCell>
        <mxCell id="iK3zuMoLE5hwUh2cM-yj-3" value="&lt;font style=&quot;font-size: 13px;&quot;&gt;Yes&lt;br&gt;(API)&lt;/font&gt;" style="edgeLabel;html=1;align=center;verticalAlign=middle;resizable=0;points=[];" vertex="1" connectable="0" parent="iK3zuMoLE5hwUh2cM-yj-2">
          <mxGeometry x="-0.1" y="2" relative="1" as="geometry">
            <mxPoint x="-32" y="2" as="offset" />
          </mxGeometry>
        </mxCell>
        <mxCell id="4oc1TcgjgqitA63c4j54-1" style="edgeStyle=orthogonalEdgeStyle;rounded=0;orthogonalLoop=1;jettySize=auto;html=1;exitX=1;exitY=0.5;exitDx=0;exitDy=0;entryX=0;entryY=0.5;entryDx=0;entryDy=0;" edge="1" parent="JE7L3iNSK9wxi28AZLIl-2" source="QHmtUkzqIkDgGUw0xg6C-1" target="QHmtUkzqIkDgGUw0xg6C-4">
          <mxGeometry relative="1" as="geometry" />
        </mxCell>
        <mxCell id="JE7L3iNSK9wxi28AZLIl-3" value="OP" style="swimlane;startSize=20;horizontal=0;html=1;fontSize=13;" vertex="1" parent="JE7L3iNSK9wxi28AZLIl-1">
          <mxGeometry y="220" width="860" height="200" as="geometry" />
        </mxCell>
        <mxCell id="4pcVJG-zE3mjRksetatY-2" value="6.3&lt;br&gt;GPS SMT Travel Card&lt;br&gt;- Select Stencil&lt;br&gt;-Select Support Fixture" style="rounded=1;whiteSpace=wrap;html=1;fontSize=13;" vertex="1" parent="JE7L3iNSK9wxi28AZLIl-3">
          <mxGeometry x="460" y="42" width="120" height="120" as="geometry" />
        </mxCell>
        <mxCell id="4oc1TcgjgqitA63c4j54-4" style="edgeStyle=orthogonalEdgeStyle;rounded=0;orthogonalLoop=1;jettySize=auto;html=1;exitX=1;exitY=0.5;exitDx=0;exitDy=0;entryX=0;entryY=0.5;entryDx=0;entryDy=0;" edge="1" parent="JE7L3iNSK9wxi28AZLIl-1" source="4pcVJG-zE3mjRksetatY-2" target="4oc1TcgjgqitA63c4j54-5">
          <mxGeometry relative="1" as="geometry">
            <mxPoint x="610" y="330" as="targetPoint" />
          </mxGeometry>
        </mxCell>
        <mxCell id="4oc1TcgjgqitA63c4j54-2" style="edgeStyle=orthogonalEdgeStyle;rounded=0;orthogonalLoop=1;jettySize=auto;html=1;exitX=1;exitY=0.5;exitDx=0;exitDy=0;entryX=0;entryY=0.5;entryDx=0;entryDy=0;" edge="1" parent="JE7L3iNSK9wxi28AZLIl-1" source="QHmtUkzqIkDgGUw0xg6C-4" target="4pcVJG-zE3mjRksetatY-2">
          <mxGeometry relative="1" as="geometry" />
        </mxCell>
        <mxCell id="4oc1TcgjgqitA63c4j54-7" value="&lt;font style=&quot;font-size: 13px;&quot;&gt;End&lt;/font&gt;" style="ellipse;whiteSpace=wrap;html=1;aspect=fixed;" vertex="1" parent="QHmtUkzqIkDgGUw0xg6C-3">
          <mxGeometry x="680" y="460" width="80" height="80" as="geometry" />
        </mxCell>
        <mxCell id="wCWMTO_biVZ_xCEZj8qB-2" style="edgeStyle=orthogonalEdgeStyle;rounded=0;orthogonalLoop=1;jettySize=auto;html=1;exitX=0.5;exitY=1;exitDx=0;exitDy=0;entryX=0.5;entryY=0;entryDx=0;entryDy=0;" edge="1" parent="QHmtUkzqIkDgGUw0xg6C-3" source="4oc1TcgjgqitA63c4j54-5" target="4oc1TcgjgqitA63c4j54-7">
          <mxGeometry relative="1" as="geometry" />
        </mxCell>
        <mxCell id="wCWMTO_biVZ_xCEZj8qB-3" value="&lt;font style=&quot;font-size: 13px;&quot;&gt;No&lt;/font&gt;" style="edgeLabel;html=1;align=center;verticalAlign=middle;resizable=0;points=[];" vertex="1" connectable="0" parent="wCWMTO_biVZ_xCEZj8qB-2">
          <mxGeometry x="-0.8643" relative="1" as="geometry">
            <mxPoint as="offset" />
          </mxGeometry>
        </mxCell>
        <mxCell id="wCWMTO_biVZ_xCEZj8qB-4" style="edgeStyle=orthogonalEdgeStyle;rounded=0;orthogonalLoop=1;jettySize=auto;html=1;exitX=0.5;exitY=1;exitDx=0;exitDy=0;" edge="1" parent="1" source="4oc1TcgjgqitA63c4j54-6" target="QHmtUkzqIkDgGUw0xg6C-1">
          <mxGeometry relative="1" as="geometry" />
        </mxCell>
        <mxCell id="4oc1TcgjgqitA63c4j54-6" value="&lt;font style=&quot;font-size: 13px;&quot;&gt;Start&lt;/font&gt;" style="ellipse;whiteSpace=wrap;html=1;aspect=fixed;" vertex="1" parent="1">
          <mxGeometry x="-740" y="-610" width="80" height="80" as="geometry" />
        </mxCell>
      </root>
    </mxGraphModel>
  </diagram>
  <diagram id="TwhQzasSkKV44i85lMlL" name="14. AOI">
    <mxGraphModel dx="2779" dy="1545" grid="1" gridSize="10" guides="1" tooltips="1" connect="1" arrows="1" fold="1" page="0" pageScale="1" pageWidth="1169" pageHeight="827" math="0" shadow="0">
      <root>
        <mxCell id="0" />
        <mxCell id="1" parent="0" />
        <mxCell id="-r-OsDqMfNIxZq5W5FvP-1" value="14. AOI" style="swimlane;childLayout=stackLayout;resizeParent=1;resizeParentMax=0;horizontal=1;startSize=20;horizontalStack=0;html=1;" parent="1" vertex="1">
          <mxGeometry x="-760" y="-240" width="1910" height="1010" as="geometry" />
        </mxCell>
        <mxCell id="-r-OsDqMfNIxZq5W5FvP-2" value="&lt;font style=&quot;font-size: 13px;&quot;&gt;OP&lt;/font&gt;" style="swimlane;startSize=20;horizontal=0;html=1;" parent="-r-OsDqMfNIxZq5W5FvP-1" vertex="1">
          <mxGeometry y="20" width="1910" height="220" as="geometry" />
        </mxCell>
        <mxCell id="-r-OsDqMfNIxZq5W5FvP-7" value="14.1&lt;br style=&quot;font-size: 13px;&quot;&gt;Manual Attach&amp;nbsp;&lt;br style=&quot;font-size: 13px;&quot;&gt;Magazines in&lt;br style=&quot;font-size: 13px;&quot;&gt;the beginning" style="rounded=1;whiteSpace=wrap;html=1;fontSize=13;" parent="-r-OsDqMfNIxZq5W5FvP-2" vertex="1">
          <mxGeometry x="80" y="60" width="120" height="120" as="geometry" />
        </mxCell>
        <mxCell id="-r-OsDqMfNIxZq5W5FvP-14" value="14.6&lt;br style=&quot;font-size: 13px;&quot;&gt;Manul Judge&lt;br style=&quot;font-size: 13px;&quot;&gt;Good?" style="rhombus;whiteSpace=wrap;html=1;fontSize=13;" parent="-r-OsDqMfNIxZq5W5FvP-2" vertex="1">
          <mxGeometry x="680" y="60" width="120" height="120" as="geometry" />
        </mxCell>
        <mxCell id="K5HgcPyVkRXFlCsnjira-10" value="14.3&lt;br style=&quot;font-size: 13px;&quot;&gt;Auto add panel to&lt;br style=&quot;font-size: 13px;&quot;&gt;Defect to be judged&lt;br style=&quot;font-size: 13px;&quot;&gt;Magazine" style="rounded=1;whiteSpace=wrap;html=1;fontSize=13;" parent="-r-OsDqMfNIxZq5W5FvP-2" vertex="1">
          <mxGeometry x="880" y="60" width="120" height="120" as="geometry" />
        </mxCell>
        <mxCell id="-r-OsDqMfNIxZq5W5FvP-3" value="&lt;font style=&quot;font-size: 13px;&quot;&gt;MES System&lt;/font&gt;" style="swimlane;startSize=20;horizontal=0;html=1;" parent="-r-OsDqMfNIxZq5W5FvP-1" vertex="1">
          <mxGeometry y="240" width="1910" height="410" as="geometry" />
        </mxCell>
        <mxCell id="K5HgcPyVkRXFlCsnjira-1" style="edgeStyle=orthogonalEdgeStyle;rounded=0;orthogonalLoop=1;jettySize=auto;html=1;exitX=0.5;exitY=1;exitDx=0;exitDy=0;entryX=0;entryY=0.5;entryDx=0;entryDy=0;" parent="-r-OsDqMfNIxZq5W5FvP-3" source="-r-OsDqMfNIxZq5W5FvP-9" target="-r-OsDqMfNIxZq5W5FvP-15" edge="1">
          <mxGeometry relative="1" as="geometry" />
        </mxCell>
        <mxCell id="K5HgcPyVkRXFlCsnjira-2" value="&lt;font style=&quot;font-size: 13px;&quot;&gt;Yes&lt;/font&gt;" style="edgeLabel;html=1;align=center;verticalAlign=middle;resizable=0;points=[];" parent="K5HgcPyVkRXFlCsnjira-1" vertex="1" connectable="0">
          <mxGeometry x="-0.6034" relative="1" as="geometry">
            <mxPoint as="offset" />
          </mxGeometry>
        </mxCell>
        <mxCell id="-r-OsDqMfNIxZq5W5FvP-9" value="14.2&lt;br style=&quot;font-size: 13px;&quot;&gt;AOI Judge&lt;br style=&quot;font-size: 13px;&quot;&gt;Good?" style="rhombus;whiteSpace=wrap;html=1;fontSize=13;" parent="-r-OsDqMfNIxZq5W5FvP-3" vertex="1">
          <mxGeometry x="280" y="40" width="120" height="120" as="geometry" />
        </mxCell>
        <mxCell id="-r-OsDqMfNIxZq5W5FvP-11" value="14.3&lt;br style=&quot;font-size: 13px;&quot;&gt;Auto add panel to&lt;br style=&quot;font-size: 13px;&quot;&gt;Defect to be judged&lt;br style=&quot;font-size: 13px;&quot;&gt;Magazine" style="rounded=1;whiteSpace=wrap;html=1;fontSize=13;" parent="-r-OsDqMfNIxZq5W5FvP-3" vertex="1">
          <mxGeometry x="480" y="40" width="120" height="120" as="geometry" />
        </mxCell>
        <mxCell id="-r-OsDqMfNIxZq5W5FvP-12" style="edgeStyle=orthogonalEdgeStyle;rounded=0;orthogonalLoop=1;jettySize=auto;html=1;exitX=1;exitY=0.5;exitDx=0;exitDy=0;entryX=0;entryY=0.5;entryDx=0;entryDy=0;" parent="-r-OsDqMfNIxZq5W5FvP-3" source="-r-OsDqMfNIxZq5W5FvP-9" target="-r-OsDqMfNIxZq5W5FvP-11" edge="1">
          <mxGeometry relative="1" as="geometry" />
        </mxCell>
        <mxCell id="-r-OsDqMfNIxZq5W5FvP-13" value="&lt;font style=&quot;font-size: 13px;&quot;&gt;No&lt;/font&gt;" style="edgeLabel;html=1;align=center;verticalAlign=middle;resizable=0;points=[];" parent="-r-OsDqMfNIxZq5W5FvP-12" vertex="1" connectable="0">
          <mxGeometry x="-0.1095" relative="1" as="geometry">
            <mxPoint as="offset" />
          </mxGeometry>
        </mxCell>
        <mxCell id="K5HgcPyVkRXFlCsnjira-5" style="edgeStyle=orthogonalEdgeStyle;rounded=0;orthogonalLoop=1;jettySize=auto;html=1;exitX=1;exitY=0.5;exitDx=0;exitDy=0;entryX=0;entryY=0.5;entryDx=0;entryDy=0;" parent="-r-OsDqMfNIxZq5W5FvP-3" source="-r-OsDqMfNIxZq5W5FvP-15" target="K5HgcPyVkRXFlCsnjira-4" edge="1">
          <mxGeometry relative="1" as="geometry" />
        </mxCell>
        <mxCell id="-r-OsDqMfNIxZq5W5FvP-15" value="14.4&lt;br style=&quot;font-size: 13px;&quot;&gt;Auto add panel to&lt;br style=&quot;font-size: 13px;&quot;&gt;Good&lt;br style=&quot;font-size: 13px;&quot;&gt;Magazine" style="rounded=1;whiteSpace=wrap;html=1;fontSize=13;" parent="-r-OsDqMfNIxZq5W5FvP-3" vertex="1">
          <mxGeometry x="480" y="240" width="120" height="120" as="geometry" />
        </mxCell>
        <mxCell id="K5HgcPyVkRXFlCsnjira-7" style="edgeStyle=orthogonalEdgeStyle;rounded=0;orthogonalLoop=1;jettySize=auto;html=1;exitX=1;exitY=0.5;exitDx=0;exitDy=0;entryX=0;entryY=0.5;entryDx=0;entryDy=0;" parent="-r-OsDqMfNIxZq5W5FvP-3" source="K5HgcPyVkRXFlCsnjira-4" target="K5HgcPyVkRXFlCsnjira-6" edge="1">
          <mxGeometry relative="1" as="geometry" />
        </mxCell>
        <mxCell id="K5HgcPyVkRXFlCsnjira-4" value="14.7&lt;br style=&quot;font-size: 13px;&quot;&gt;Fill Good &lt;br style=&quot;font-size: 13px;&quot;&gt;Magazine till full" style="rounded=1;whiteSpace=wrap;html=1;fontSize=13;" parent="-r-OsDqMfNIxZq5W5FvP-3" vertex="1">
          <mxGeometry x="680" y="240" width="120" height="120" as="geometry" />
        </mxCell>
        <mxCell id="K5HgcPyVkRXFlCsnjira-6" value="14.7&lt;br style=&quot;font-size: 13px;&quot;&gt;Fill Good &lt;br style=&quot;font-size: 13px;&quot;&gt;Magazine till full" style="rounded=1;whiteSpace=wrap;html=1;fontSize=13;" parent="-r-OsDqMfNIxZq5W5FvP-3" vertex="1">
          <mxGeometry x="880" y="240" width="120" height="120" as="geometry" />
        </mxCell>
        <mxCell id="-r-OsDqMfNIxZq5W5FvP-4" value="Lane 3" style="swimlane;startSize=20;horizontal=0;html=1;" parent="-r-OsDqMfNIxZq5W5FvP-1" vertex="1">
          <mxGeometry y="650" width="1910" height="360" as="geometry" />
        </mxCell>
        <mxCell id="-r-OsDqMfNIxZq5W5FvP-10" style="edgeStyle=orthogonalEdgeStyle;rounded=0;orthogonalLoop=1;jettySize=auto;html=1;exitX=1;exitY=0.5;exitDx=0;exitDy=0;entryX=0;entryY=0.5;entryDx=0;entryDy=0;" parent="-r-OsDqMfNIxZq5W5FvP-1" source="-r-OsDqMfNIxZq5W5FvP-7" target="-r-OsDqMfNIxZq5W5FvP-9" edge="1">
          <mxGeometry relative="1" as="geometry" />
        </mxCell>
        <mxCell id="K5HgcPyVkRXFlCsnjira-3" style="edgeStyle=orthogonalEdgeStyle;rounded=0;orthogonalLoop=1;jettySize=auto;html=1;exitX=1;exitY=0.5;exitDx=0;exitDy=0;entryX=0;entryY=0.5;entryDx=0;entryDy=0;" parent="-r-OsDqMfNIxZq5W5FvP-1" source="-r-OsDqMfNIxZq5W5FvP-11" target="-r-OsDqMfNIxZq5W5FvP-14" edge="1">
          <mxGeometry relative="1" as="geometry" />
        </mxCell>
        <mxCell id="-r-OsDqMfNIxZq5W5FvP-6" value="Start" style="ellipse;whiteSpace=wrap;html=1;aspect=fixed;fontSize=13;" parent="1" vertex="1">
          <mxGeometry x="-680" y="-360" width="80" height="80" as="geometry" />
        </mxCell>
        <mxCell id="DdEMvUbgFAGjMsZrBji2-1" value="14.1a&lt;br&gt;Attach Good/&lt;br&gt;Judged Good/&lt;br&gt;Judged Defect/&lt;br&gt;Defect to be Judged&lt;br&gt;Magazines" style="rounded=1;whiteSpace=wrap;html=1;" vertex="1" parent="1">
          <mxGeometry x="-720" y="1000" width="120" height="120" as="geometry" />
        </mxCell>
        <mxCell id="DdEMvUbgFAGjMsZrBji2-3" value="14.1&amp;nbsp;&lt;span style=&quot;font-size: 13px; font-weight: 400;&quot;&gt;Manual Attach&amp;nbsp;&lt;/span&gt;&lt;span style=&quot;font-size: 13px; font-weight: 400;&quot;&gt;Magazines in&amp;nbsp;&lt;/span&gt;&lt;span style=&quot;font-size: 13px; font-weight: 400;&quot;&gt;the beginning&lt;/span&gt;" style="swimlane;childLayout=stackLayout;resizeParent=1;resizeParentMax=0;horizontal=1;startSize=20;horizontalStack=0;html=1;" vertex="1" parent="1">
          <mxGeometry x="-760" y="920" width="1920" height="650" as="geometry" />
        </mxCell>
        <mxCell id="DdEMvUbgFAGjMsZrBji2-4" value="Lane 1" style="swimlane;startSize=20;horizontal=0;html=1;" vertex="1" parent="DdEMvUbgFAGjMsZrBji2-3">
          <mxGeometry y="20" width="1920" height="220" as="geometry" />
        </mxCell>
        <mxCell id="DdEMvUbgFAGjMsZrBji2-5" value="Lane 2" style="swimlane;startSize=20;horizontal=0;html=1;" vertex="1" parent="DdEMvUbgFAGjMsZrBji2-3">
          <mxGeometry y="240" width="1920" height="200" as="geometry" />
        </mxCell>
        <mxCell id="DdEMvUbgFAGjMsZrBji2-6" value="Lane 3" style="swimlane;startSize=20;horizontal=0;html=1;" vertex="1" parent="DdEMvUbgFAGjMsZrBji2-3">
          <mxGeometry y="440" width="1920" height="210" as="geometry" />
        </mxCell>
      </root>
    </mxGraphModel>
  </diagram>
  <diagram id="hk7AZ7fEfIaTKNx2pWkl" name="SMT Change Shift">
    <mxGraphModel dx="5179" dy="3145" grid="1" gridSize="10" guides="1" tooltips="1" connect="1" arrows="1" fold="1" page="0" pageScale="1" pageWidth="1169" pageHeight="827" math="0" shadow="0">
      <root>
        <mxCell id="0" />
        <mxCell id="1" parent="0" />
        <mxCell id="e_gYC0Pggd6D9bbD14an-1" value="Start" style="ellipse;whiteSpace=wrap;html=1;aspect=fixed;fontSize=13;" parent="1" vertex="1">
          <mxGeometry x="-3020" y="-1880" width="80" height="80" as="geometry" />
        </mxCell>
        <mxCell id="t_ECP2zw7exi6PNgPVcH-1" value="" style="group" parent="1" vertex="1" connectable="0">
          <mxGeometry x="-3120" y="-1780" width="1270" height="610" as="geometry" />
        </mxCell>
        <mxCell id="t_ECP2zw7exi6PNgPVcH-2" value="SMT Change Shift" style="swimlane;childLayout=stackLayout;resizeParent=1;resizeParentMax=0;horizontal=1;startSize=20;horizontalStack=0;html=1;fontSize=13;" parent="t_ECP2zw7exi6PNgPVcH-1" vertex="1">
          <mxGeometry width="1210" height="420" as="geometry" />
        </mxCell>
        <mxCell id="t_ECP2zw7exi6PNgPVcH-3" value="GPS" style="swimlane;startSize=20;horizontal=0;html=1;fontSize=13;" parent="t_ECP2zw7exi6PNgPVcH-2" vertex="1">
          <mxGeometry y="20" width="1210" height="200" as="geometry" />
        </mxCell>
        <mxCell id="t_ECP2zw7exi6PNgPVcH-25" style="edgeStyle=orthogonalEdgeStyle;rounded=0;orthogonalLoop=1;jettySize=auto;html=1;exitX=1;exitY=0.5;exitDx=0;exitDy=0;entryX=0;entryY=0.5;entryDx=0;entryDy=0;" parent="t_ECP2zw7exi6PNgPVcH-3" source="e_gYC0Pggd6D9bbD14an-4" target="t_ECP2zw7exi6PNgPVcH-19" edge="1">
          <mxGeometry relative="1" as="geometry" />
        </mxCell>
        <mxCell id="e_gYC0Pggd6D9bbD14an-4" value="Change Shift&lt;br style=&quot;font-size: 13px;&quot;&gt;Every 8 Hours" style="rounded=1;whiteSpace=wrap;html=1;fontSize=13;" parent="t_ECP2zw7exi6PNgPVcH-3" vertex="1">
          <mxGeometry x="80" y="40" width="120" height="120" as="geometry" />
        </mxCell>
        <mxCell id="t_ECP2zw7exi6PNgPVcH-19" value="WO is still&amp;nbsp;&lt;br style=&quot;font-size: 13px;&quot;&gt;in production" style="rhombus;whiteSpace=wrap;html=1;fontSize=13;" parent="t_ECP2zw7exi6PNgPVcH-3" vertex="1">
          <mxGeometry x="280" y="40" width="120" height="120" as="geometry" />
        </mxCell>
        <mxCell id="t_ECP2zw7exi6PNgPVcH-11" value="OP" style="swimlane;startSize=20;horizontal=0;html=1;fontSize=13;" parent="t_ECP2zw7exi6PNgPVcH-2" vertex="1">
          <mxGeometry y="220" width="1210" height="200" as="geometry" />
        </mxCell>
        <mxCell id="t_ECP2zw7exi6PNgPVcH-20" value="SMT Travel Card&lt;br style=&quot;font-size: 13px;&quot;&gt;Change Stencil" style="rounded=1;whiteSpace=wrap;html=1;fontSize=13;" parent="t_ECP2zw7exi6PNgPVcH-11" vertex="1">
          <mxGeometry x="480" y="40" width="120" height="120" as="geometry" />
        </mxCell>
        <mxCell id="t_ECP2zw7exi6PNgPVcH-26" style="edgeStyle=orthogonalEdgeStyle;rounded=0;orthogonalLoop=1;jettySize=auto;html=1;exitX=1;exitY=0.5;exitDx=0;exitDy=0;entryX=0;entryY=0.5;entryDx=0;entryDy=0;" parent="t_ECP2zw7exi6PNgPVcH-2" source="t_ECP2zw7exi6PNgPVcH-19" target="t_ECP2zw7exi6PNgPVcH-20" edge="1">
          <mxGeometry relative="1" as="geometry" />
        </mxCell>
        <mxCell id="t_ECP2zw7exi6PNgPVcH-29" value="&lt;font style=&quot;font-size: 13px;&quot;&gt;Yes&lt;/font&gt;" style="edgeLabel;html=1;align=center;verticalAlign=middle;resizable=0;points=[];" parent="t_ECP2zw7exi6PNgPVcH-26" vertex="1" connectable="0">
          <mxGeometry x="-0.8429" y="-1" relative="1" as="geometry">
            <mxPoint as="offset" />
          </mxGeometry>
        </mxCell>
        <mxCell id="t_ECP2zw7exi6PNgPVcH-15" value="&lt;font style=&quot;font-size: 13px;&quot;&gt;End&lt;/font&gt;" style="ellipse;whiteSpace=wrap;html=1;aspect=fixed;" parent="1" vertex="1">
          <mxGeometry x="-2417" y="-920" width="80" height="80" as="geometry" />
        </mxCell>
        <mxCell id="t_ECP2zw7exi6PNgPVcH-21" value="GL" style="swimlane;startSize=20;horizontal=0;html=1;fontSize=13;" parent="1" vertex="1">
          <mxGeometry x="-3120" y="-1360" width="1210" height="200" as="geometry" />
        </mxCell>
        <mxCell id="t_ECP2zw7exi6PNgPVcH-24" value="Verify SMT&amp;nbsp;&lt;br&gt;Travel Card" style="rhombus;whiteSpace=wrap;html=1;fontSize=13;" parent="t_ECP2zw7exi6PNgPVcH-21" vertex="1">
          <mxGeometry x="683" y="40" width="120" height="120" as="geometry" />
        </mxCell>
        <mxCell id="t_ECP2zw7exi6PNgPVcH-27" style="edgeStyle=orthogonalEdgeStyle;rounded=0;orthogonalLoop=1;jettySize=auto;html=1;exitX=1;exitY=0.5;exitDx=0;exitDy=0;entryX=0;entryY=0.5;entryDx=0;entryDy=0;" parent="1" source="t_ECP2zw7exi6PNgPVcH-20" target="t_ECP2zw7exi6PNgPVcH-24" edge="1">
          <mxGeometry relative="1" as="geometry" />
        </mxCell>
        <mxCell id="t_ECP2zw7exi6PNgPVcH-28" style="edgeStyle=orthogonalEdgeStyle;rounded=0;orthogonalLoop=1;jettySize=auto;html=1;exitX=0.5;exitY=1;exitDx=0;exitDy=0;entryX=0;entryY=0.5;entryDx=0;entryDy=0;" parent="1" source="t_ECP2zw7exi6PNgPVcH-19" target="t_ECP2zw7exi6PNgPVcH-15" edge="1">
          <mxGeometry relative="1" as="geometry" />
        </mxCell>
        <mxCell id="t_ECP2zw7exi6PNgPVcH-30" value="&lt;font style=&quot;font-size: 13px;&quot;&gt;No&lt;/font&gt;" style="edgeLabel;html=1;align=center;verticalAlign=middle;resizable=0;points=[];" parent="t_ECP2zw7exi6PNgPVcH-28" vertex="1" connectable="0">
          <mxGeometry x="-0.9638" y="-2" relative="1" as="geometry">
            <mxPoint as="offset" />
          </mxGeometry>
        </mxCell>
        <mxCell id="t_ECP2zw7exi6PNgPVcH-31" style="edgeStyle=orthogonalEdgeStyle;rounded=0;orthogonalLoop=1;jettySize=auto;html=1;exitX=0.5;exitY=1;exitDx=0;exitDy=0;entryX=0.5;entryY=0;entryDx=0;entryDy=0;" parent="1" source="t_ECP2zw7exi6PNgPVcH-24" target="t_ECP2zw7exi6PNgPVcH-15" edge="1">
          <mxGeometry relative="1" as="geometry" />
        </mxCell>
        <mxCell id="t_ECP2zw7exi6PNgPVcH-32" value="No" style="edgeLabel;html=1;align=center;verticalAlign=middle;resizable=0;points=[];" parent="t_ECP2zw7exi6PNgPVcH-31" vertex="1" connectable="0">
          <mxGeometry x="-0.425" y="-1" relative="1" as="geometry">
            <mxPoint x="1" as="offset" />
          </mxGeometry>
        </mxCell>
        <mxCell id="t_ECP2zw7exi6PNgPVcH-33" style="edgeStyle=orthogonalEdgeStyle;rounded=0;orthogonalLoop=1;jettySize=auto;html=1;exitX=1;exitY=0.5;exitDx=0;exitDy=0;entryX=0;entryY=0.5;entryDx=0;entryDy=0;" parent="1" source="t_ECP2zw7exi6PNgPVcH-24" target="qawlOjn2zlZbueIkyI8x-1" edge="1">
          <mxGeometry relative="1" as="geometry">
            <mxPoint x="-2177" y="-1260" as="targetPoint" />
          </mxGeometry>
        </mxCell>
        <mxCell id="SS4aonbvlrutPF7vh6GK-1" style="edgeStyle=orthogonalEdgeStyle;rounded=0;orthogonalLoop=1;jettySize=auto;html=1;exitX=0.5;exitY=1;exitDx=0;exitDy=0;entryX=0.5;entryY=0;entryDx=0;entryDy=0;" parent="1" source="e_gYC0Pggd6D9bbD14an-1" target="e_gYC0Pggd6D9bbD14an-4" edge="1">
          <mxGeometry relative="1" as="geometry" />
        </mxCell>
        <mxCell id="SS4aonbvlrutPF7vh6GK-3" value="MES" style="swimlane;startSize=20;horizontal=0;html=1;fontSize=13;" parent="1" vertex="1">
          <mxGeometry x="-3120" y="-1160" width="1210" height="200" as="geometry" />
        </mxCell>
        <mxCell id="qawlOjn2zlZbueIkyI8x-1" value="7&lt;br&gt;Auto Attach Stencil &amp;amp; Support Fixture" style="rounded=1;whiteSpace=wrap;html=1;fontSize=13;" parent="SS4aonbvlrutPF7vh6GK-3" vertex="1">
          <mxGeometry x="880.002671755725" y="40" width="120" height="120" as="geometry" />
        </mxCell>
      </root>
    </mxGraphModel>
  </diagram>
</mxfile>
